# xmcd
#
# Track frame offsets: 
#        150
#        14002
#        32225
#        51167
#        65989
#        86188
#        105451
#        122526
#        141367
#        163134
#
# Disc length: 2496 seconds
#
# Revision: 0
# Processed by: cddbd v1.5.2PL0 Copyright (c) Steve Scherf et al.
# Submitted via: ExactAudioCopyFreeDBPlugin 1.0
#
DISCID=9309be0a
DTITLE=Vanessa Peters - With the Sentimentals
DYEAR=2015
DGENRE=americana
TTITLE0=Pacific Street
TTITLE1=Call You All the Time
TTITLE2=Big Time Underground
TTITLE3=Mostly Fictions
TTITLE4=The Choice
TTITLE5=Fickle Friends
TTITLE6=Fireworks
TTITLE7=Light
TTITLE8=Afford to Pretend
TTITLE9=Getting By
EXTD=
EXTT0=
EXTT1=
EXTT2=
EXTT3=
EXTT4=
EXTT5=
EXTT6=
EXTT7=
EXTT8=
EXTT9=
PLAYORDER=
